<svg width="0" height="0" class="hidden">
  <symbol fill="none" xmlns="http://www.w3.org/2000/svg" viewBox="0 0 25 25" id="users">
    <path fill-rule="evenodd" clip-rule="evenodd" d="M12.5 11.3493C13.4548 11.3493 14.3705 10.97 15.0456 10.2949C15.7207 9.61975 16.1 8.70407 16.1 7.74929C16.1 6.79451 15.7207 5.87884 15.0456 5.20371C14.3705 4.52858 13.4548 4.14929 12.5 4.14929C11.5452 4.14929 10.6296 4.52858 9.95442 5.20371C9.27929 5.87884 8.90001 6.79451 8.90001 7.74929C8.90001 8.70407 9.27929 9.61975 9.95442 10.2949C10.6296 10.97 11.5452 11.3493 12.5 11.3493ZM7.39866 22.1493C5.57686 22.1493 4.04225 20.6179 4.73942 18.9347C5.16156 17.9156 5.7803 16.9896 6.56031 16.2096C7.34032 15.4296 8.26633 14.8108 9.28547 14.3887C10.3046 13.9666 11.3969 13.7493 12.5 13.7493C13.6031 13.7493 14.6954 13.9666 15.7145 14.3887C16.7337 14.8108 17.6597 15.4296 18.4397 16.2096C19.2197 16.9896 19.8385 17.9156 20.2606 18.9347C20.9578 20.6179 19.4232 22.1493 17.6014 22.1493H7.39866Z" fill="#F53838"></path>
  </symbol>
  <symbol fill="none" xmlns="http://www.w3.org/2000/svg" viewBox="0 0 24 25" id="locations">
    <path d="M19 9.54932C19 8.63006 18.8189 7.71981 18.4672 6.87053C18.1154 6.02125 17.5998 5.24958 16.9497 4.59957C16.2997 3.94956 15.5281 3.43394 14.6788 3.08216C13.8295 2.73038 12.9193 2.54932 12 2.54932C11.0807 2.54932 10.1705 2.73038 9.32122 3.08216C8.47194 3.43394 7.70026 3.94956 7.05025 4.59957C6.40024 5.24958 5.88463 6.02125 5.53284 6.87053C5.18106 7.71981 5 8.63006 5 9.54932C5 10.9363 5.41 12.2263 6.105 13.3143H6.097C8.457 17.0093 12 22.5493 12 22.5493L17.903 13.3143H17.896C18.6164 12.1907 18.9995 10.8841 19 9.54932ZM12 12.5493C11.2044 12.5493 10.4413 12.2332 9.87868 11.6706C9.31607 11.108 9 10.345 9 9.54932C9 8.75367 9.31607 7.99061 9.87868 7.428C10.4413 6.86539 11.2044 6.54932 12 6.54932C12.7956 6.54932 13.5587 6.86539 14.1213 7.428C14.6839 7.99061 15 8.75367 15 9.54932C15 10.345 14.6839 11.108 14.1213 11.6706C13.5587 12.2332 12.7956 12.5493 12 12.5493Z" fill="#F53838"></path>
  </symbol>
  <symbol fill="none" xmlns="http://www.w3.org/2000/svg" viewBox="0 0 25 25" id="servers">
    <path d="M20.5 3.54932H4.5C3.96957 3.54932 3.46086 3.76003 3.08579 4.1351C2.71071 4.51018 2.5 5.01888 2.5 5.54932V9.54932C2.5 10.0797 2.71071 10.5885 3.08579 10.9635C3.46086 11.3386 3.96957 11.5493 4.5 11.5493H20.5C21.0304 11.5493 21.5391 11.3386 21.9142 10.9635C22.2893 10.5885 22.5 10.0797 22.5 9.54932V5.54932C22.5 5.01888 22.2893 4.51018 21.9142 4.1351C21.5391 3.76003 21.0304 3.54932 20.5 3.54932ZM15.5 7.54932C15.5 8.1016 15.0523 8.54932 14.5 8.54932C13.9477 8.54932 13.5 8.1016 13.5 7.54932C13.5 6.99703 13.9477 6.54932 14.5 6.54932C15.0523 6.54932 15.5 6.99703 15.5 7.54932ZM19.5 7.54932C19.5 8.1016 19.0523 8.54932 18.5 8.54932C17.9477 8.54932 17.5 8.1016 17.5 7.54932C17.5 6.99703 17.9477 6.54932 18.5 6.54932C19.0523 6.54932 19.5 6.99703 19.5 7.54932ZM20.5 13.5493H4.5C3.96957 13.5493 3.46086 13.76 3.08579 14.1351C2.71071 14.5102 2.5 15.0189 2.5 15.5493V19.5493C2.5 20.0798 2.71071 20.5885 3.08579 20.9635C3.46086 21.3386 3.96957 21.5493 4.5 21.5493H20.5C21.0304 21.5493 21.5391 21.3386 21.9142 20.9635C22.2893 20.5885 22.5 20.0798 22.5 19.5493V15.5493C22.5 15.0189 22.2893 14.5102 21.9142 14.1351C21.5391 13.76 21.0304 13.5493 20.5 13.5493ZM15.5 17.5493C15.5 18.1016 15.0523 18.5493 14.5 18.5493C13.9477 18.5493 13.5 18.1016 13.5 17.5493C13.5 16.997 13.9477 16.5493 14.5 16.5493C15.0523 16.5493 15.5 16.997 15.5 17.5493ZM19.5 17.5493C19.5 18.1016 19.0523 18.5493 18.5 18.5493C17.9477 18.5493 17.5 18.1016 17.5 17.5493C17.5 16.997 17.9477 16.5493 18.5 16.5493C19.0523 16.5493 19.5 16.997 19.5 17.5493Z" fill="#F53838"></path>
  </symbol>
  <symbol fill="none" xmlns="http://www.w3.org/2000/svg" viewBox="0 0 25 25" id="check">
    <path d="M12.1215 2.54932C6.60746 2.54932 2.12146 7.03532 2.12146 12.5493C2.12146 18.0633 6.60746 22.5493 12.1215 22.5493C17.6355 22.5493 22.1215 18.0633 22.1215 12.5493C22.1215 7.03532 17.6355 2.54932 12.1215 2.54932ZM10.1225 16.9623L7.11691 13.9632C6.72616 13.5733 6.72537 12.9405 7.11515 12.5496C7.50517 12.1585 8.13847 12.1578 8.52939 12.548L10.1205 14.1363L14.7075 9.54932C15.0979 9.15885 15.731 9.15885 16.1215 9.54932C16.5119 9.93978 16.5119 10.5729 16.1215 10.9633L10.1225 16.9623Z" fill="#2FAB73"></path>
  </symbol>
  <symbol fill="none" xmlns="http://www.w3.org/2000/svg" viewBox="0 0 25 25" id="check-plan">
    <path d="M11.4487 17.2795C11.3174 17.2798 11.1874 17.2542 11.0661 17.204C10.9448 17.1539 10.8345 17.0804 10.7417 16.9875L6.4997 12.7445C6.40412 12.6524 6.32786 12.5421 6.27537 12.4201C6.22288 12.2981 6.1952 12.1669 6.19395 12.0342C6.19271 11.9014 6.21792 11.7697 6.26811 11.6468C6.3183 11.5238 6.39248 11.4121 6.4863 11.3182C6.58013 11.2242 6.69173 11.1499 6.81458 11.0995C6.93744 11.0491 7.0691 11.0237 7.20188 11.0248C7.33466 11.0259 7.4659 11.0534 7.58794 11.1057C7.70998 11.158 7.82038 11.2341 7.9127 11.3295L11.4477 14.8645L17.8127 8.50155C18.0002 8.31391 18.2546 8.20844 18.5198 8.20834C18.7851 8.20825 19.0396 8.31354 19.2272 8.50105C19.4148 8.68855 19.5203 8.94292 19.5204 9.20819C19.5205 9.47346 19.4152 9.72791 19.2277 9.91555L12.1557 16.9875C12.0629 17.0804 11.9526 17.1539 11.8313 17.204C11.71 17.2542 11.58 17.2798 11.4487 17.2795Z" fill="#2FAB73"></path>
  </symbol>
  <symbol fill="none" xmlns="http://www.w3.org/2000/svg" viewBox="0 0 34 35" id="facebook">
    <path d="M16.8 0.580566C7.5215 0.580566 0 8.10207 0 17.3806C0 26.6591 7.5215 34.1806 16.8 34.1806C26.0785 34.1806 33.6 26.6591 33.6 17.3806C33.6 8.10207 26.0785 0.580566 16.8 0.580566ZM20.7795 12.1901H18.2543C17.955 12.1901 17.6225 12.5838 17.6225 13.1071V14.9306H20.7813L20.3035 17.5311H17.6225V25.3378H14.6423V17.5311H11.9385V14.9306H14.6423V13.4011C14.6423 11.2066 16.1648 9.42332 18.2543 9.42332H20.7795V12.1901Z" fill="#F53838"></path>
  </symbol>
  <symbol fill="none" xmlns="http://www.w3.org/2000/svg" viewBox="0 0 34 35" id="instagram">
    <path d="M22.25 17.3806C22.25 18.773 21.6968 20.1083 20.7123 21.0929C19.7277 22.0774 18.3923 22.6306 17 22.6306C15.6076 22.6306 14.2722 22.0774 13.2876 21.0929C12.3031 20.1083 11.75 18.773 11.75 17.3806C11.75 17.0813 11.7815 16.7891 11.8357 16.5056H9.99995V23.5003C9.99995 23.9868 10.3937 24.3806 10.8802 24.3806H23.1215C23.3546 24.3801 23.5781 24.2872 23.7428 24.1221C23.9075 23.9571 24 23.7335 24 23.5003V16.5056H22.1642C22.2185 16.7891 22.25 17.0813 22.25 17.3806ZM17 20.8806C17.4597 20.8805 17.9149 20.7898 18.3396 20.6137C18.7643 20.4377 19.1502 20.1797 19.4752 19.8546C19.8002 19.5294 20.058 19.1434 20.2338 18.7186C20.4096 18.2938 20.5001 17.8386 20.5 17.3788C20.4998 16.9191 20.4092 16.4639 20.2331 16.0392C20.0571 15.6145 19.7991 15.2286 19.474 14.9036C19.1488 14.5786 18.7628 14.3208 18.338 14.145C17.9132 13.9691 17.4579 13.8787 16.9982 13.8788C16.0697 13.8791 15.1793 14.2481 14.523 14.9048C13.8666 15.5615 13.498 16.4521 13.4982 17.3806C13.4984 18.3091 13.8675 19.1994 14.5242 19.8558C15.1809 20.5122 16.0715 20.8808 17 20.8806ZM21.2 13.7056H23.2982C23.4376 13.7056 23.5713 13.6503 23.6701 13.5519C23.7688 13.4535 23.8245 13.32 23.825 13.1806V11.0823C23.825 10.9426 23.7695 10.8086 23.6707 10.7098C23.5719 10.6111 23.4379 10.5556 23.2982 10.5556H21.2C21.0603 10.5556 20.9263 10.6111 20.8275 10.7098C20.7287 10.8086 20.6732 10.9426 20.6732 11.0823V13.1806C20.675 13.4693 20.9112 13.7056 21.2 13.7056ZM17 0.580566C12.5443 0.580566 8.27117 2.35056 5.12056 5.50117C1.96995 8.65178 0.199951 12.9249 0.199951 17.3806C0.199951 21.8362 1.96995 26.1094 5.12056 29.26C8.27117 32.4106 12.5443 34.1806 17 34.1806C19.2062 34.1806 21.3908 33.746 23.429 32.9017C25.4673 32.0575 27.3193 30.82 28.8794 29.26C30.4394 27.6999 31.6769 25.8479 32.5211 23.8097C33.3654 21.7714 33.8 19.5868 33.8 17.3806C33.8 15.1744 33.3654 12.9898 32.5211 10.9515C31.6769 8.91322 30.4394 7.0612 28.8794 5.50117C27.3193 3.94115 25.4673 2.70367 23.429 1.85939C21.3908 1.01511 19.2062 0.580566 17 0.580566ZM25.75 24.1863C25.75 25.2556 24.875 26.1306 23.8057 26.1306H10.1942C9.12495 26.1306 8.24995 25.2556 8.24995 24.1863V10.5748C8.24995 9.50557 9.12495 8.63057 10.1942 8.63057H23.8057C24.875 8.63057 25.75 9.50557 25.75 10.5748V24.1863Z" fill="#F53838"></path>
  </symbol>
  <symbol fill="none" xmlns="http://www.w3.org/2000/svg" viewBox="0 0 35 35" id="twitter">
    <path d="M17.4 0.580566C8.12148 0.580566 0.599976 8.10207 0.599976 17.3806C0.599976 26.6591 8.12148 34.1806 17.4 34.1806C26.6785 34.1806 34.2 26.6591 34.2 17.3806C34.2 8.10207 26.6785 0.580566 17.4 0.580566ZM24.2337 14.3426C24.2407 14.4861 24.2425 14.6296 24.2425 14.7696C24.2425 19.1446 20.9157 24.1863 14.8292 24.1863C13.0307 24.1893 11.2697 23.6728 9.75773 22.6988C10.015 22.7303 10.2792 22.7426 10.547 22.7426C12.0975 22.7426 13.5237 22.2158 14.656 21.3268C13.966 21.3133 13.2974 21.0848 12.7434 20.6732C12.1894 20.2617 11.7777 19.6875 11.5655 19.0308C12.061 19.125 12.5715 19.1053 13.0582 18.9731C12.3093 18.8216 11.6358 18.4158 11.152 17.8245C10.6681 17.2331 10.4037 16.4926 10.4035 15.7286V15.6883C10.8497 15.9351 11.3607 16.0856 11.9032 16.1031C11.2011 15.6357 10.7041 14.9177 10.5138 14.0961C10.3235 13.2744 10.4543 12.411 10.8795 11.6826C11.7106 12.7046 12.7472 13.5406 13.922 14.1366C15.0968 14.7326 16.3836 15.0752 17.6992 15.1423C17.532 14.4324 17.604 13.687 17.904 13.0222C18.204 12.3574 18.7153 11.8103 19.3584 11.466C20.0014 11.1218 20.7402 10.9996 21.4598 11.1185C22.1794 11.2374 22.8396 11.5907 23.3377 12.1236C24.0783 11.9771 24.7884 11.7054 25.4377 11.3203C25.1909 12.0871 24.6742 12.7381 23.9835 13.1526C24.6395 13.0736 25.28 12.8972 25.884 12.6293C25.4403 13.2941 24.8815 13.8743 24.2337 14.3426Z" fill="#F53838"></path>
  </symbol>
  <symbol fill="none" xmlns="http://www.w3.org/2000/svg" viewBox="0 0 16 17" id="star">
    <path d="M14.1891 6.41802L10.2219 5.84146L8.44844 2.24615C8.4 2.14771 8.32031 2.06802 8.22187 2.01959C7.975 1.89771 7.675 1.99927 7.55156 2.24615L5.77812 5.84146L1.81094 6.41802C1.70156 6.43365 1.60156 6.48521 1.525 6.56334C1.43244 6.65847 1.38143 6.78646 1.38319 6.91918C1.38495 7.0519 1.43933 7.1785 1.53437 7.27115L4.40469 10.0696L3.72656 14.0211C3.71066 14.1131 3.72083 14.2076 3.75592 14.294C3.79102 14.3805 3.84963 14.4554 3.92511 14.5102C4.00059 14.565 4.08992 14.5976 4.18297 14.6042C4.27602 14.6108 4.36907 14.5913 4.45156 14.5477L8 12.6821L11.5484 14.5477C11.6453 14.5993 11.7578 14.6165 11.8656 14.5977C12.1375 14.5508 12.3203 14.293 12.2734 14.0211L11.5953 10.0696L14.4656 7.27115C14.5437 7.19459 14.5953 7.09459 14.6109 6.98521C14.6531 6.71177 14.4625 6.45865 14.1891 6.41802Z" fill="#FEA250"></path>
  </symbol>
  <symbol fill="none" xmlns="http://www.w3.org/2000/svg" viewBox="0 0 30 31" id="arrow-left">
    <path d="M23.75 14.0029H8.925L13.4625 8.55291C13.6747 8.29764 13.7768 7.96854 13.7463 7.638C13.7158 7.30747 13.5553 7.00258 13.3 6.79041C13.0447 6.57823 12.7156 6.47616 12.3851 6.50663C12.0546 6.53711 11.7497 6.69764 11.5375 6.95291L5.2875 14.4529C5.24545 14.5126 5.20785 14.5752 5.175 14.6404C5.175 14.7029 5.175 14.7404 5.0875 14.8029C5.03084 14.9462 5.00118 15.0988 5 15.2529C5.00118 15.407 5.03084 15.5596 5.0875 15.7029C5.0875 15.7654 5.0875 15.8029 5.175 15.8654C5.20785 15.9306 5.24545 15.9933 5.2875 16.0529L11.5375 23.5529C11.655 23.694 11.8022 23.8075 11.9686 23.8853C12.1349 23.963 12.3164 24.0032 12.5 24.0029C12.7921 24.0035 13.0751 23.9018 13.3 23.7154C13.4266 23.6105 13.5312 23.4816 13.6079 23.3362C13.6846 23.1907 13.7318 23.0316 13.7469 22.8679C13.762 22.7042 13.7447 22.5391 13.6959 22.3821C13.6471 22.2251 13.5678 22.0792 13.4625 21.9529L8.925 16.5029H23.75C24.0815 16.5029 24.3995 16.3712 24.6339 16.1368C24.8683 15.9024 25 15.5844 25 15.2529C25 14.9214 24.8683 14.6034 24.6339 14.369C24.3995 14.1346 24.0815 14.0029 23.75 14.0029Z" fill="#F53838"></path>
  </symbol>
  <symbol fill="none" xmlns="http://www.w3.org/2000/svg" viewBox="0 0 30 31" id="arrow-right">
    <path d="M6.25 14.0029H21.075L16.5375 8.55291C16.3253 8.29764 16.2232 7.96854 16.2537 7.638C16.2842 7.30747 16.4447 7.00258 16.7 6.79041C16.9553 6.57823 17.2844 6.47616 17.6149 6.50663C17.9454 6.53711 18.2503 6.69764 18.4625 6.95291L24.7125 14.4529C24.7545 14.5126 24.7922 14.5752 24.825 14.6404C24.825 14.7029 24.825 14.7404 24.9125 14.8029C24.9692 14.9462 24.9988 15.0988 25 15.2529C24.9988 15.407 24.9692 15.5596 24.9125 15.7029C24.9125 15.7654 24.9125 15.8029 24.825 15.8654C24.7922 15.9306 24.7545 15.9933 24.7125 16.0529L18.4625 23.5529C18.345 23.694 18.1978 23.8075 18.0314 23.8853C17.8651 23.963 17.6836 24.0032 17.5 24.0029C17.2079 24.0035 16.9249 23.9018 16.7 23.7154C16.5734 23.6105 16.4688 23.4816 16.3921 23.3362C16.3154 23.1907 16.2682 23.0316 16.2531 22.8679C16.238 22.7042 16.2553 22.5391 16.3041 22.3821C16.3529 22.2251 16.4322 22.0792 16.5375 21.9529L21.075 16.5029H6.25C5.91848 16.5029 5.60054 16.3712 5.36612 16.1368C5.13169 15.9024 5 15.5844 5 15.2529C5 14.9214 5.13169 14.6034 5.36612 14.369C5.60054 14.1346 5.91848 14.0029 6.25 14.0029Z" fill="white"></path>
  </symbol>
</svg>